<svg width="925" height="235" viewBox="0 0 925 235" fill="none" xmlns="http://www.w3.org/2000/svg">
<g clip-path="url(#clip0_4155_866)">
<path d="M101.475 0L0 58.5882V175.765L101.475 234.353L202.95 175.765V58.5882L101.475 0ZM159.96 150.933L101.494 184.689L43.0272 150.933V83.4202L101.494 49.6641L159.96 83.4202V150.933Z" fill="black"/>
<path d="M314.287 175.886C304.21 175.886 295.183 173.58 287.233 168.94C279.275 164.309 272.994 157.626 268.392 148.87C263.789 140.115 261.492 129.578 261.492 117.251C261.492 104.924 263.817 94.2192 268.438 85.4356C273.069 76.6615 279.369 69.9683 287.355 65.3657C295.333 60.763 304.313 58.4663 314.297 58.4663C320.783 58.4663 326.839 59.3943 332.407 61.2317C337.985 63.069 342.944 65.7406 347.293 69.2465C351.643 72.7525 355.177 77.0364 357.924 82.0985C360.661 87.1605 362.433 92.9162 363.258 99.3749H340.619C340.103 96.1034 339.11 93.1786 337.629 90.582C336.138 88.0041 334.263 85.8012 331.995 83.9826C329.717 82.1641 327.13 80.7861 324.252 79.8393C321.355 78.8925 318.206 78.4238 314.775 78.4238C308.738 78.4238 303.423 79.933 298.811 82.9515C294.208 85.97 290.608 90.3664 288.03 96.1502C285.443 101.925 284.149 108.974 284.149 117.251C284.149 125.529 285.452 132.719 288.058 138.474C290.674 144.23 294.255 148.57 298.839 151.514C303.423 154.457 308.71 155.929 314.681 155.929C318.009 155.929 321.102 155.479 323.961 154.579C326.82 153.689 329.398 152.376 331.676 150.661C333.945 148.955 335.857 146.855 337.394 144.371C338.932 141.887 340.01 139.037 340.619 135.821H363.258C362.592 141.183 360.998 146.283 358.467 151.092C355.936 155.891 352.562 160.157 348.334 163.859C344.116 167.572 339.147 170.487 333.448 172.652C327.739 174.799 321.355 175.877 314.306 175.877V175.905L314.287 175.886Z" fill="black"/>
<path d="M397.324 124.423V174.302H375.379V59.957H396.714V103.462H397.792C399.78 98.5034 402.911 94.585 407.157 91.7165C411.394 88.8574 416.803 87.4138 423.346 87.4138C429.28 87.4138 434.483 88.6887 438.917 91.2478C443.369 93.8069 446.828 97.491 449.275 102.3C451.731 107.099 452.95 112.921 452.95 119.726V174.284H430.921V123.41C430.921 117.88 429.514 113.577 426.702 110.474C423.89 107.381 419.915 105.834 414.806 105.834C411.375 105.834 408.357 106.574 405.751 108.065C403.136 109.555 401.083 111.665 399.573 114.392C398.064 117.139 397.314 120.458 397.314 124.413V124.432L397.324 124.423Z" fill="black"/>
<path d="M491.963 175.999C486.488 175.999 481.595 175.024 477.274 173.084C472.952 171.134 469.549 168.256 467.065 164.45C464.581 160.645 463.344 155.92 463.344 150.296C463.344 145.496 464.225 141.493 465.997 138.315C467.768 135.138 470.168 132.578 473.215 130.61C476.261 128.641 479.702 127.151 483.573 126.157C487.435 125.164 491.494 124.46 495.731 124.048C500.746 123.532 504.787 123.064 507.861 122.633C510.936 122.201 513.167 121.508 514.573 120.561C515.979 119.614 516.682 118.217 516.682 116.38V115.996C516.682 112.152 515.501 109.171 513.158 107.053C510.805 104.934 507.449 103.866 503.099 103.866C498.497 103.866 494.841 104.869 492.122 106.903C489.413 108.918 487.604 111.365 486.676 114.224L466.259 111.993C467.534 106.781 469.859 102.338 473.205 98.6816C476.552 95.0257 480.761 92.2323 485.823 90.3106C490.885 88.3889 496.641 87.4233 503.09 87.4233C507.543 87.4233 511.883 87.9483 516.101 88.9982C520.32 90.0387 524.126 91.7073 527.538 93.9946C530.931 96.2725 533.659 99.2816 535.665 103.012C537.68 106.753 538.702 111.299 538.702 116.68V174.303H517.685V162.407H517.076C515.736 164.957 513.964 167.272 511.705 169.325C509.455 171.378 506.69 172.99 503.418 174.2C500.147 175.409 496.331 176.009 491.982 176.009H491.954L491.963 175.999ZM497.934 160.345C501.721 160.345 505.021 159.595 507.833 158.085C510.646 156.576 512.848 154.561 514.433 152.03C516.017 149.499 516.814 146.696 516.814 143.631V134.031C516.101 134.547 515.042 135.006 513.673 135.419C512.286 135.831 510.73 136.206 508.986 136.534C507.252 136.862 505.527 137.153 503.84 137.415C502.153 137.669 500.643 137.875 499.312 138.025C496.397 138.437 493.828 139.103 491.597 140.012C489.366 140.94 487.613 142.187 486.338 143.771C485.064 145.355 484.417 147.352 484.417 149.761C484.417 153.239 485.682 155.873 488.213 157.673C490.744 159.463 493.978 160.354 497.916 160.354H497.925L497.934 160.345Z" fill="black"/>
<path d="M553.121 174.311V88.5193H575.066V174.311H553.121Z" fill="black"/>
<path d="M611.445 124.423V174.303H589.5V88.5014H611.06V103.462H611.989C613.929 98.5504 617.013 94.6508 621.231 91.7542C625.45 88.8576 630.755 87.4233 637.158 87.4233C643.092 87.4233 648.276 88.6982 652.691 91.2573C657.116 93.8071 660.546 97.5099 662.984 102.338C665.412 107.175 666.63 112.968 666.63 119.717V174.274H644.685V123.401C644.685 117.927 643.27 113.624 640.43 110.512C637.599 107.4 633.69 105.825 628.721 105.825C625.347 105.825 622.356 106.565 619.778 108.056C617.191 109.546 615.166 111.655 613.676 114.383C612.185 117.13 611.454 120.448 611.454 124.404V124.423H611.445Z" fill="black"/>
<path d="M702.988 54.3325V174.312H681.043V54.3325H702.988Z" fill="black"/>
<path d="M717.406 174.311V88.5193H739.351V174.311H717.406Z" fill="black"/>
<path d="M775.722 124.423V174.303H753.777V88.5014H775.338V103.462H776.266C778.206 98.5504 781.29 94.6508 785.509 91.7542C789.727 88.8576 795.033 87.4233 801.435 87.4233C807.369 87.4233 812.553 88.6982 816.978 91.2573C821.402 93.8071 824.833 97.5099 827.261 102.338C829.689 107.175 830.908 112.968 830.908 119.717V174.274H808.963V123.401C808.963 117.927 807.547 113.624 804.707 110.512C801.876 107.4 797.967 105.825 792.999 105.825C789.624 105.825 786.634 106.565 784.056 108.056C781.468 109.546 779.444 111.655 777.953 114.383C776.463 117.13 775.722 120.448 775.722 124.404V124.423Z" fill="black"/>
<path d="M898.982 174.312H925.005L890.743 125.67L923.233 88.5106H897.764L868.666 122.051H867.298V59.957H845.344V174.312H867.298V146.302L874.178 138.671L898.982 174.302V174.312Z" fill="black"/>
<path d="M575.238 54.3325H553.293V76.2773H575.238V54.3325Z" fill="black"/>
<path d="M739.542 54.3325H717.598V76.2773H739.542V54.3325Z" fill="black"/>
</g>
<defs>
<clipPath id="clip0_4155_866">
<rect width="925.006" height="234.353" fill="white"/>
</clipPath>
</defs>
</svg>
